<?xml version="1.0" encoding="UTF-8"?>
<svg width="14px" height="20px" viewBox="0 0 14 20" version="1.1" xmlns="http://www.w3.org/2000/svg" xmlns:xlink="http://www.w3.org/1999/xlink">
    <!-- Generator: Sketch 60.1 (88133) - https://sketch.com -->
    <title>location_on copy</title>
    <desc>Created with Sketch.</desc>
    <defs>
        <path d="M12,1.99999996 C8.12999998,1.99999996 4.99999997,5.12999997 4.99999997,8.99999996 C4.99999997,14.25 12,22 12,22 C12,22 19,14.25 19,8.99999996 C19,5.12999997 15.87,1.99999996 12,1.99999996 L12,1.99999996 Z M12,11.5 C10.62,11.5 9.49999999,10.38 9.49999999,8.99999998 C9.49999999,7.61999998 10.62,6.49999998 12,6.49999998 C13.38,6.49999998 14.5,7.61999998 14.5,8.99999998 C14.5,10.38 13.38,11.5 12,11.5 L12,11.5 Z" id="path-1"></path>
    </defs>
    <g id="Page-1" stroke="none" stroke-width="1" fill="none" fill-rule="evenodd">
        <g id="iPhone-8" transform="translate(-121.000000, -442.000000)">
            <g id="location_on-copy" transform="translate(116.000000, 440.000000)">
                <polygon id="Base" fill-rule="nonzero" points="-4.99999828e-08 -4.9999926e-08 24.0000001 -4.9999926e-08 24.0000001 24.0000001 -4.99999828e-08 24.0000001"></polygon>
                <mask id="mask-2" fill="white">
                    <use xlink:href="#path-1"></use>
                </mask>
                <use id="Icon" fill="#992B2B" fill-rule="nonzero" xlink:href="#path-1"></use>
                <rect id="↳-🎨-Color" fill="#B77373" mask="url(#mask-2)" x="0" y="0" width="24" height="24"></rect>
            </g>
        </g>
    </g>
</svg>