<?xml version="1.0" encoding="UTF-8"?>
<svg width="18px" height="18px" viewBox="0 0 18 18" version="1.1" xmlns="http://www.w3.org/2000/svg" xmlns:xlink="http://www.w3.org/1999/xlink">
    <!-- Generator: Sketch 60.1 (88133) - https://sketch.com -->
    <title>map copy</title>
    <desc>Created with Sketch.</desc>
    <defs>
        <path d="M20.5,2.99999996 L20.34,3.02999996 L15,5.09999997 L8.99999996,2.99999996 L3.35999996,4.89999997 C3.14999996,4.96999997 2.99999996,5.14999997 2.99999996,5.37999997 L2.99999996,20.5 C2.99999996,20.78 3.21999996,21 3.49999996,21 L3.65999997,20.97 L8.99999996,18.9 L15,21 L20.64,19.1 C20.85,19.03 21,18.85 21,18.62 L21,3.49999996 C21,3.21999996 20.78,2.99999996 20.5,2.99999996 L20.5,2.99999996 Z M15,19 L8.99999999,16.89 L8.99999999,4.99999997 L15,7.10999998 L15,19 L15,19 Z" id="path-1"></path>
    </defs>
    <g id="Page-1" stroke="none" stroke-width="1" fill="none" fill-rule="evenodd">
        <g id="iPhone-8" transform="translate(-99.000000, -166.000000)">
            <g id="map-copy" transform="translate(96.000000, 163.000000)">
                <polygon id="Base" points="-5.00000112e-08 -4.9999926e-08 24 -4.9999926e-08 24 24.0000001 -5.00000112e-08 24.0000001"></polygon>
                <mask id="mask-2" fill="white">
                    <use xlink:href="#path-1"></use>
                </mask>
                <g id="Icon" fill-rule="nonzero"></g>
                <rect id="↳-🎨-Color" fill="#B77373" mask="url(#mask-2)" x="0" y="0" width="24" height="24"></rect>
            </g>
        </g>
    </g>
</svg>