<?xml version="1.0" encoding="UTF-8"?>
<svg width="21px" height="29px" viewBox="0 0 21 29" version="1.1" xmlns="http://www.w3.org/2000/svg" xmlns:xlink="http://www.w3.org/1999/xlink">
    <!-- Generator: Sketch 61.2 (89653) - https://sketch.com -->
    <title>place</title>
    <desc>Created with Sketch.</desc>
    <defs>
        <path d="M16.5,2.74999994 C11.17875,2.74999994 6.87499996,7.05374996 6.87499996,12.375 C6.87499996,19.59375 16.5,30.2499999 16.5,30.2499999 C16.5,30.2499999 26.125,19.59375 26.125,12.375 C26.125,7.05374996 21.82125,2.74999994 16.5,2.74999994 L16.5,2.74999994 Z M16.5,15.8125 C14.6025,15.8125 13.0625,14.2725 13.0625,12.375 C13.0625,10.4775 14.6025,8.93749997 16.5,8.93749997 C18.3975,8.93749997 19.9375,10.4775 19.9375,12.375 C19.9375,14.2725 18.3975,15.8125 16.5,15.8125 L16.5,15.8125 Z" id="path-1"></path>
    </defs>
    <g id="Page-1" stroke="none" stroke-width="1" fill="none" fill-rule="evenodd">
        <g id="iPhone-8" transform="translate(-224.000000, -284.000000)">
            <g id="place" transform="translate(218.000000, 282.000000)">
                <polygon id="Base" fill-rule="nonzero" points="-6.87499764e-08 -6.87498982e-08 33.0000001 -6.87498982e-08 33.0000001 33.0000001 -6.87499764e-08 33.0000001"></polygon>
                <mask id="mask-2" fill="white">
                    <use xlink:href="#path-1"></use>
                </mask>
                <g id="Icon" fill-rule="nonzero"></g>
                <rect id="↳-🎨-Color" fill="#F6D9D3" fill-rule="evenodd" mask="url(#mask-2)" x="0" y="0" width="33" height="33"></rect>
            </g>
        </g>
    </g>
</svg>